<?xml version="1.0" encoding="UTF-8"?>
<svg id="Layer_2" data-name="Layer 2" xmlns="http://www.w3.org/2000/svg" viewBox="0 0 33.83 27.02">
  <path d="m33.83.52c-.03.2-.12.41-.21.63-1.61,3.76-3.23,7.52-4.84,11.28-1.72,4.01-3.44,8.01-5.15,12.02-.29.69-.57,1.38-.89,2.06-.28.59-.56.66-1.08.27-1.81-1.35-3.63-2.7-5.45-4.06-.63-.47-1.26-.94-1.89-1.41-.32-.24-.33-.23-.63.03-.93.79-1.87,1.57-2.8,2.36-.4.34-.86.27-1.02-.3-.57-2.11-1.17-4.22-1.74-6.33-.08-.3-.22-.53-.47-.71-1.74-1.28-3.47-2.56-5.21-3.84-.7-.52-1.4-1.04-2.1-1.57-.13-.1-.26-.19-.32-.35-.12-.32.04-.62.44-.75.69-.22,1.38-.42,2.07-.63,3.95-1.19,7.91-2.38,11.86-3.57,4.43-1.34,8.86-2.67,13.29-4.01,1.71-.52,3.42-1.04,5.14-1.56.18-.05.36-.11.55-.09.26.03.45.24.44.52ZM14.6,17.37c-.55.45-1.11.89-1.67,1.33-.16.12-.06.18.04.26.46.34.92.67,1.38,1.01,2.47,1.83,4.94,3.66,7.41,5.5.18.13.23.08.3-.09.6-1.43,1.21-2.85,1.82-4.27,2.45-5.72,4.91-11.45,7.36-17.17.04-.09.12-.18.04-.32-3.21,2.64-6.42,5.28-9.64,7.92l-7.04,5.83Zm-9.08-7.9c-1.09.34-2.18.66-3.27.99-.13.04-.26.03-.29.17-.04.16.08.2.19.29,1.07.8,2.14,1.6,3.22,2.39.97.72,1.95,1.45,2.92,2.17.13.09.23.17.4.05,1.82-1.21,3.65-2.42,5.48-3.63,4.48-2.96,8.95-5.91,13.43-8.87.12-.08.23-.16.34-.24-.01-.02-.02-.05-.03-.07-4.09,1.23-8.17,2.47-12.29,3.71l-10.1,3.04Zm8.77-2.64c-.46.14-.92.29-1.44.45M32.02,1.48c-.19.1-.38.18-.56.3-.73.51-1.49.98-2.23,1.47-2.62,1.73-5.21,3.5-7.84,5.21-3.95,2.56-7.86,5.17-11.79,7.76-.15.1-.13.15,0,.24.7.52,1.41,1.04,2.11,1.56.14.11.25.1.4-.02,1.73-1.43,3.46-2.86,5.2-4.29,2.88-2.37,5.77-4.75,8.66-7.12,1.9-1.56,3.78-3.15,5.71-4.67.14-.11.3-.22.35-.44ZM10.42,21.28s.04,0,.07,0c.04-.11.08-.21.11-.32.18-.58.35-1.16.53-1.73.06-.17.02-.28-.12-.38-.41-.29-.82-.6-1.23-.9-.09-.07-.19-.15-.32-.14.32,1.17.64,2.32.96,3.47Zm1.17.42c.49-.41.96-.79,1.42-1.18.11-.1.04-.16-.05-.23-.22-.15-.44-.3-.65-.47-.15-.12-.2-.08-.25.08-.12.42-.26.83-.38,1.25-.05.16-.13.31-.08.55Z" style="fill: red;"/>
</svg>