<?xml version="1.0" encoding="UTF-8"?>
<svg id="Layer_1" data-name="Layer 1" xmlns="http://www.w3.org/2000/svg" viewBox="0 0 28.36 25.27">
  <path d="m6.5,25.27c-2.25,0-3.21-1.18-3.21-2.81v-1.41c0-1.94.9-2.84,1.58-3.66.65-.73.84-1.24.84-1.83,0-1.1-1.13-1.69-3.26-1.69H0v-2.48h2.45c2.14,0,3.26-.59,3.26-1.69,0-.59-.2-1.1-.84-1.83-.67-.82-1.58-1.72-1.58-3.66v-1.41c0-1.63.96-2.81,3.21-2.81h4.98v2.48h-5.26v1.58c0,1.46.54,2.08,1.13,2.84.65.79,1.32,1.66,1.32,2.84,0,1.55-1.1,2.56-3.24,2.81v.17c2.14.25,3.24,1.27,3.24,2.81,0,1.18-.68,2.05-1.32,2.84-.59.76-1.13,1.38-1.13,2.84v1.58h5.26v2.48h-4.98Z" style="fill: red;"/>
  <path d="m21.86,0c2.25,0,3.21,1.18,3.21,2.81v1.41c0,1.94-.9,2.84-1.58,3.66-.65.73-.84,1.24-.84,1.83,0,1.1,1.12,1.69,3.26,1.69h2.45v2.48h-2.45c-2.14,0-3.26.59-3.26,1.69,0,.59.2,1.1.84,1.83.67.82,1.58,1.72,1.58,3.66v1.41c0,1.63-.96,2.81-3.21,2.81h-4.98v-2.48h5.26v-1.58c0-1.46-.54-2.08-1.13-2.84-.65-.79-1.32-1.66-1.32-2.84,0-1.55,1.1-2.56,3.24-2.81v-.17c-2.14-.25-3.24-1.27-3.24-2.81,0-1.18.68-2.05,1.32-2.84.59-.76,1.13-1.38,1.13-2.84v-1.58h-5.26V0h4.98Z" style="fill: red;"/>
</svg>