<?xml version="1.0" encoding="UTF-8"?>
<svg id="Layer_1" data-name="Layer 1" xmlns="http://www.w3.org/2000/svg" viewBox="0 0 36.81 22.46">
  <g>
    <path d="m10.91,11.24c0-1.16,0-2.32,0-3.47,0-.89.31-1.67.83-2.37.57-.77,1.34-1.28,2.27-1.52.3-.08.63-.13.94-.13,2.23-.01,4.46-.02,6.7,0,1.07,0,2.02.33,2.84,1.05.71.63,1.15,1.41,1.34,2.33.07.33.08.68.08,1.01,0,2.11.01,4.23,0,6.34,0,1-.29,1.91-.92,2.7-.58.71-1.32,1.19-2.19,1.43-.35.1-.72.12-1.08.12-2.33.01-4.66.02-6.99,0-.74,0-1.42-.3-2.03-.73-.87-.62-1.43-1.45-1.69-2.48-.06-.24-.09-.5-.09-.76,0-1.17,0-2.34,0-3.51Zm7.44-4.14c-2.33-.04-4.03,1.9-4.12,3.91-.11,2.57,1.91,4.32,3.95,4.41,2.42.1,4.54-1.87,4.36-4.49-.13-1.97-1.8-3.87-4.2-3.82Zm5.03-.04c.43.07.87-.42.85-.82-.02-.46-.37-.82-.82-.83-.56-.01-.85.43-.85.83,0,.39.32.85.82.81Z" style="fill: red;"/>
    <path d="m15.91,11.24c-.04-1.39,1.12-2.49,2.36-2.51,1.57-.03,2.62,1.12,2.62,2.5,0,1.39-1.1,2.4-2.34,2.5-1.52.11-2.71-1.22-2.65-2.48Z" style="fill: red;"/>
  </g>
  <rect x=".75" y=".75" width="35.31" height="20.96" rx="10.48" ry="10.48" style="fill: none; stroke: red; stroke-miterlimit: 10; stroke-width: 1.5px;"/>
</svg>