<?xml version="1.0" encoding="UTF-8"?>
<svg id="Layer_1" data-name="Layer 1" xmlns="http://www.w3.org/2000/svg" viewBox="0 0 38.02 26.78">
  <g>
    <rect x=".5" y="11.47" width="37.02" height="14.81" rx="2.82" ry="2.82" style="fill: #fff;"/>
    <path d="m34.71,26.78H3.32c-1.83,0-3.32-1.49-3.32-3.32v-9.18c0-1.83,1.49-3.32,3.32-3.32h31.39c1.83,0,3.32,1.49,3.32,3.32v9.18c0,1.83-1.49,3.32-3.32,3.32ZM3.32,11.97c-1.28,0-2.32,1.04-2.32,2.32v9.18c0,1.28,1.04,2.32,2.32,2.32h31.39c1.28,0,2.32-1.04,2.32-2.32v-9.18c0-1.28-1.04-2.32-2.32-2.32H3.32Z"/>
  </g>
  <rect x="9.57" y="21.52" width="18.87" height="2.63" rx=".37" ry=".37"/>
  <rect x="2.55" y="21.52" width="5.43" height="2.63" rx=".37" ry=".37"/>
  <rect x="29.65" y="21.52" width="5.43" height="2.63" rx=".37" ry=".37"/>
  <rect x="7.1" y="18.13" width="5.58" height="2.63" rx=".37" ry=".37"/>
  <rect x="2.55" y="18.13" width="3.55" height="2.63" rx=".37" ry=".37"/>
  <rect x="28.57" y="18.13" width="6.51" height="2.63" rx=".37" ry=".37"/>
  <rect x="9.32" y="14.56" width="7.72" height="2.63" rx=".37" ry=".37"/>
  <rect x="2.55" y="14.56" width="5.43" height="2.63" rx=".37" ry=".37"/>
  <rect x="32.37" y="14.56" width="2.72" height="2.63" rx=".37" ry=".37"/>
  <rect x="21.01" y="18.13" width="6.51" height="2.63" rx=".37" ry=".37"/>
  <rect x="13.65" y="18.13" width="6.51" height="2.63" rx=".37" ry=".37"/>
  <rect x="17.83" y="14.56" width="6.51" height="2.63" rx=".37" ry=".37"/>
  <rect x="24.93" y="14.56" width="6.51" height="2.63" rx=".37" ry=".37"/>
  <path d="m32.98,11.05l-2-.06c.07-2.43-.5-3.91-1.69-4.4-.84-.35-1.62-.09-3.05.43-1.38.5-3.09,1.13-5.41,1.04-1.92-.08-4.03-1.74-4.62-3.62-.44-1.41-.44-2.36-.44-4.43h2c0,1.98,0,2.72.35,3.84.33,1.08,1.71,2.17,2.79,2.22,1.92.07,3.37-.45,4.64-.92,1.49-.54,2.9-1.06,4.5-.4,2.04.84,3.03,2.96,2.93,6.31Z"/>
</svg>