<?xml version="1.0" encoding="UTF-8"?>
<svg id="Layer_1" data-name="Layer 1" xmlns="http://www.w3.org/2000/svg" viewBox="0 0 36.81 22.46">
  <path d="m10.91,11.24c0-2,0-4,0-5.99,0-.61.49-1.27,1.15-1.42.24-.06.49-.08.74-.08,3.77,0,7.54,0,11.3,0,.75,0,1.34.31,1.64,1.02.1.23.14.51.14.76,0,3.81.01,7.63,0,11.44,0,.83-.34,1.38-1.22,1.72-.11.04-.24.05-.36.05-3.98,0-7.95,0-11.93,0-.53,0-1.11-.38-1.36-1-.08-.21-.12-.44-.12-.66,0-1.94,0-3.88,0-5.82Zm8.83,4.16c0-1.11,0-2.19,0-3.28,0-.36.14-.65.42-.85.25-.18.76-.16.98.18.18.28.22.58.22.89.01.95,0,1.9,0,2.85,0,.07,0,.14,0,.21h2.03v-.22c0-.9,0-1.8,0-2.69,0-.48-.02-.97-.15-1.44-.14-.49-.37-.92-.81-1.21-.35-.24-.74-.24-1.14-.23-.55.01-1.04.15-1.42.57-.03.04-.08.07-.16.13v-.72h-2.07v5.82h2.09Zm-5.93-5.82v5.82h2.08v-5.82h-2.08Zm.98-1.07s.01.04.02.05c.23-.08.47-.14.68-.25.34-.18.48-.5.45-.88-.03-.33-.17-.59-.48-.76-.33-.18-.67-.19-1.01-.1-.51.13-.75.56-.72.97.04.61.5.99,1.07.97Z" style="fill: red;"/>
  <rect x=".75" y=".75" width="35.31" height="20.96" rx="10.48" ry="10.48" style="fill: none; stroke: red; stroke-miterlimit: 10; stroke-width: 1.5px;"/>
</svg>