<?xml version="1.0" encoding="UTF-8"?>
<svg id="Layer_1" data-name="Layer 1" xmlns="http://www.w3.org/2000/svg" viewBox="0 0 171.65 56.42">
  <polygon points="14.22 4.52 14.22 29.2 8.78 29.2 8.78 4.52 0 4.52 0 0 23.01 0 23.01 4.52 14.22 4.52" style="fill: #fff;"/>
  <path d="m27.14.08h5.35l.05,11.34h.21c.96-2.34,2.8-4.31,6.32-4.31,4.22,0,7.15,2.93,7.15,8.16v13.93h-5.35v-13.18c0-3.1-1.38-4.68-4.06-4.68-2.17,0-4.27,1.13-4.27,3.43v14.43h-5.35l-.05-29.12Z" style="fill: #fff;"/>
  <path d="m70.23,25.18v-10.16c0-5.19-3.43-7.91-9.09-7.91-4.68,0-7.69,1.88-9.03,4.26l3.05,2.59c1.17-1.67,2.71-2.84,5.44-2.84,2.97,0,4.26,1.42,4.26,4.14v1.42h-3.8c-6.36,0-9.58,2.18-9.58,6.52,0,4.06,2.8,6.48,7.11,6.48,3.34,0,5.73-1.55,6.53-4.22h.2c.26,2.3,1.72,3.72,4.31,3.72h3.14v-4.02h-2.55Zm-5.36-2.51c0,2.05-1.92,3.34-4.48,3.34-2.22,0-3.6-.92-3.6-2.64v-.83c0-1.81,1.47-2.76,4.4-2.76h3.68v2.88Z" style="fill: #fff;"/>
  <path d="m92.68,7.61h5.44l-10.33,25.43c-1.17,2.93-2.93,4.52-6.48,4.52h-3.93v-4.22h5.14l1.63-4.35-8.7-21.37h5.69l3.3,9.04,2.3,6.86h.29l2.3-6.86,3.35-9.04Z" style="fill: #fff;"/>
  <path d="m122.13,19.7v-1.75c0-6.53-3.93-10.83-10.16-10.83s-10.33,4.35-10.33,11.33,3.85,11.25,10.75,11.25c4.57,0,7.53-1.87,9.07-4.14l-3.05-3.05c-1.29,1.79-3.22,2.97-5.85,2.97-3.51,0-5.56-2.13-5.56-5.23v-.55h15.14Zm-15.14-3.47c0-3.1,2.01-5.19,5.02-5.19s4.77,2.01,4.77,5.1v.38h-9.79v-.29Z" style="fill: #fff;"/>
  <path d="m127.56,24.97h5.35v-13.13h-5.35v-4.22h10.71l-.04,5.02h.34c.79-3.05,2.68-5.02,6.99-5.02h2.34v5.02h-4.43c-3.39,0-5.19,2.3-5.19,5.06v7.28h7.49v4.22h-18.2v-4.22Z" style="fill: #fff;"/>
  <path d="m65.55,43.43h-8.53v12.55h-5.48l-.05-32.8,5.4,1.29.13,14.44,8.33-.03v-13.41s4.86.84,4.86.84v29.71s-4.66-.04-4.66-.04v-12.55Z" style="fill: #fff;"/>
  <polygon points="78.25 51.7 85.36 51.7 85.34 37.57 77.38 37.57 77.38 33.35 90.7 33.35 90.72 51.7 97.33 51.7 97.33 55.92 78.25 55.92 78.25 51.7" style="fill: #fff;"/>
  <path d="m83.49,11.45v-1c0-1.51.92-2.72,3.43-2.72s3.43,1.21,3.43,2.72v1c0,1.51-.92,2.72-3.43,2.72s-3.43-1.21-3.43-2.72Z" style="fill: #fff;"/>
  <path d="m102.05,45.13c0-6.94,4.02-11.29,10.54-11.29,4.56,0,7.28,2.09,8.7,5.19l-4.14,2.26c-.75-1.84-2.13-3.1-4.56-3.1-3.14,0-4.94,2.01-4.94,5.15v3.6c0,3.1,1.76,5.14,5.02,5.14,2.55,0,3.97-1.3,4.94-3.22l4.02,2.38c-1.46,3.05-4.35,5.19-8.99,5.19-6.61,0-10.58-4.35-10.58-11.29Z" style="fill: #fff;"/>
  <path d="m127.56,24.97h5.35v18.15h.25l3.14-3.43,5.31-5.35h6.23l-8.57,8.49,9.5,13.09h-6.4l-6.9-10.04-2.55,2.43v7.61h-5.35v-30.95Z" style="fill: #fff;"/>
  <path d="m151.69,52.32l3.14-2.84c1.76,1.92,4.06,3.05,7.11,3.05,2.68,0,4.43-.88,4.43-2.72,0-1.55-1.21-1.97-2.97-2.22l-3.47-.54c-3.6-.54-7.03-1.97-7.03-6.23,0-4.48,3.64-6.99,9.49-6.99,4.14,0,7.07,1.25,8.95,3.35l-2.8,3.1c-1.21-1.34-3.22-2.55-6.32-2.55-2.68,0-4.1.88-4.1,2.55,0,1.55,1.26,2.01,3.01,2.26l3.43.54c3.64.54,7.07,1.92,7.07,6.19s-3.64,7.15-9.75,7.15c-4.73,0-8.28-1.59-10.21-4.1Z" style="fill: #fff;"/>
</svg>